<svg xmlns="http://www.w3.org/2000/svg" width="13" height="14" viewBox="0 0 13 14"><g><g><g><path fill="#f1f1f3" d="M1.8 5.834a4.672 4.672 0 0 1 4.666-4.667 4.672 4.672 0 0 1 4.667 4.667c0 3.157-3.56 6.045-4.667 6.866C5.36 11.879 1.8 8.99 1.8 5.834zM6.466 0A5.795 5.795 0 0 0 2.341 1.71 5.795 5.795 0 0 0 .633 5.834c0 1.03.3 2.102.891 3.186.46.843 1.097 1.697 1.894 2.538a17.7 17.7 0 0 0 2.725 2.344c.196.13.45.13.647 0a17.7 17.7 0 0 0 2.725-2.344c.796-.841 1.433-1.695 1.893-2.538.592-1.084.892-2.156.892-3.186a5.795 5.795 0 0 0-1.709-4.125A5.795 5.795 0 0 0 6.466 0z"/></g><g><path fill="#f1f1f3" d="M5.3 5.834c0-.644.523-1.167 1.166-1.167a1.168 1.168 0 0 1 0 2.333A1.168 1.168 0 0 1 5.3 5.834zm-1.167 0a2.336 2.336 0 0 0 2.333 2.333A2.336 2.336 0 0 0 8.8 5.834 2.336 2.336 0 0 0 6.466 3.5a2.336 2.336 0 0 0-2.333 2.334z"/></g></g></g></svg>