<svg xmlns="http://www.w3.org/2000/svg" width="14" height="14" viewBox="0 0 14 14"><g><g><path fill="#f1f1f3" d="M12.018 12.721a11.059 11.059 0 0 1-4.959-1.863 11.6 11.6 0 0 1-3.45-3.64 12.484 12.484 0 0 1-1.763-5.25.662.662 0 0 1 .156-.483.593.593 0 0 1 .446-.208h1.828a.62.62 0 0 1 .6.547 9.25 9.25 0 0 0 .456 1.931.666.666 0 0 1-.135.673l-.768.81a.665.665 0 0 0-.098.766 10.595 10.595 0 0 0 3.86 4.07c.237.142.535.1.727-.103l.768-.81a.586.586 0 0 1 .639-.142c.59.233 1.206.395 1.83.482a.63.63 0 0 1 .519.663v1.918c0 .18-.071.352-.196.473a.587.587 0 0 1-.46.166zm.05 1.28a1.76 1.76 0 0 0 1.228-.505c.376-.363.59-.88.588-1.418v-1.907c.02-.968-.651-1.8-1.562-1.935a1.76 1.76 0 0 0-3.489.019l-.002.002-.434.458A9.352 9.352 0 0 1 5.62 5.787l.435-.458.002-.002c.497-.53.657-1.323.41-2.02a7.91 7.91 0 0 1-.392-1.66A1.947 1.947 0 0 0 5.467.47 1.762 1.762 0 0 0 4.277 0h-1.83a1.78 1.78 0 0 0-1.34.624 1.986 1.986 0 0 0-.466 1.474A13.813 13.813 0 0 0 2.592 7.91c.97 1.609 2.29 3 3.815 4.023a12.236 12.236 0 0 0 5.498 2.058c.054.005.109.008.163.008z"/></g></g></svg>