<svg xmlns="http://www.w3.org/2000/svg" width="16" height="19" viewBox="0 0 16 19"><g><g><g><path fill="#f1f1f3" d="M2.133 8.14c0-3.308 2.691-6 6-6 3.308 0 6 2.692 6 6 0 4.06-4.578 7.773-6 8.828-1.423-1.055-6-4.768-6-8.828zm6-7.5A7.45 7.45 0 0 0 2.83 2.837 7.45 7.45 0 0 0 .632 8.14c0 1.325.385 2.703 1.146 4.098.591 1.083 1.41 2.18 2.434 3.262a22.758 22.758 0 0 0 3.504 3.014.75.75 0 0 0 .832 0 22.757 22.757 0 0 0 3.503-3.014c1.025-1.081 1.844-2.179 2.435-3.262.76-1.395 1.146-2.773 1.146-4.098a7.45 7.45 0 0 0-2.197-5.303A7.45 7.45 0 0 0 8.133.64z"/></g><g><path fill="#f1f1f3" d="M6.633 8.14c0-.827.673-1.5 1.5-1.5s1.5.673 1.5 1.5-.673 1.5-1.5 1.5-1.5-.673-1.5-1.5zm-1.5 0c0 1.655 1.346 3 3 3s3-1.345 3-3c0-1.654-1.346-3-3-3s-3 1.346-3 3z"/></g></g></g></svg>