<svg xmlns="http://www.w3.org/2000/svg" width="15" height="14" viewBox="0 0 15 14"><g><g><path fill="#f1f1f3" d="M10.792 8.39c-.172-.087-1.025-.505-1.184-.562-.16-.059-.275-.087-.39.088a9.96 9.96 0 0 1-.55.681c-.1.116-.204.131-.376.044-1.019-.51-1.687-.91-2.36-2.063-.177-.306.179-.284.51-.947.056-.115.028-.215-.015-.303-.044-.087-.391-.94-.535-1.287-.14-.338-.284-.29-.39-.297-.1-.006-.216-.006-.332-.006a.642.642 0 0 0-.462.215c-.16.175-.606.594-.606 1.447 0 .853.621 1.678.706 1.794.087.116 1.222 1.866 2.962 2.619 1.1.475 1.532.515 2.082.434.334-.05 1.025-.419 1.168-.825.144-.406.144-.753.1-.825-.04-.078-.156-.122-.328-.206zM7.63 12.71a5.756 5.756 0 0 1-2.938-.804l-.21-.125-2.18.572.58-2.128-.137-.219a5.747 5.747 0 0 1-.88-3.068 5.774 5.774 0 0 1 5.768-5.766c1.54 0 2.987.6 4.075 1.69 1.087 1.091 1.756 2.538 1.753 4.079 0 3.181-2.653 5.769-5.831 5.769zm4.906-10.675A6.885 6.885 0 0 0 7.63 0a6.946 6.946 0 0 0-6.013 10.407L.633 14l3.678-.965a6.916 6.916 0 0 0 3.316.843h.003c3.822 0 7.003-3.112 7.003-6.937 0-1.853-.788-3.594-2.097-4.906z"/></g></g></svg>