<svg xmlns="http://www.w3.org/2000/svg" width="19" height="16" viewBox="0 0 19 16"><g><g><g><path fill="#f1f1f3" d="M3.087 13.731a.82.82 0 0 1-.818-.818V3.095a.82.82 0 0 1 .818-.818h13.091a.82.82 0 0 1 .818.818v9.818a.82.82 0 0 1-.818.818zM.633 3.095v9.818a2.457 2.457 0 0 0 2.454 2.455h13.091a2.457 2.457 0 0 0 2.455-2.455V3.095A2.457 2.457 0 0 0 16.178.64H3.088A2.457 2.457 0 0 0 .632 3.095z"/></g><g><path fill="#f1f1f3" d="M9.633 9.64a.817.817 0 0 1-.47-.148L.983 3.765a.818.818 0 0 1 .938-1.34l7.713 5.398 7.712-5.398a.818.818 0 1 1 .939 1.34l-8.182 5.727a.817.817 0 0 1-.47.148z"/></g></g></g></svg>