<svg xmlns="http://www.w3.org/2000/svg" width="24" height="17" viewBox="0 0 24 17"><defs><clipPath id="g1bla"><path d="M.838 16.23v-16h22.859v16z"/></clipPath></defs><g><g><g><g><path fill="#da7e53" d="M.838 16.23v-16h22.859v16z"/></g><g clip-path="url(#g1bla)"><path fill="#da7e53" d="M11.843 10.72c3.46-.134 8.493-.853 10.378-1.184.813-.143 1.746-.614 1.402-1.615-.163-.477-1.062-.895-1.677-.98-.98-.135-2 .031-3.003.07-5.365.206-5.038.413-10.402.62l-.195-.482c1.01-.61 2.079-1.145 3.02-1.85 1.304-.979 2.577-2.023 3.719-3.18.293-.299.194-1.195-.022-1.685-.093-.21-1.056-.29-1.434-.084C9.869 2.404 6.091 4.435 2.44 6.67.223 8.028.301 9.936 2.702 10.998c4.165 1.842 8.47 3.371 12.731 4.99.765.29 1.725.496 2.169-.465.434-.943-.26-1.52-1.031-1.94-.88-.478-1.758-.962-2.653-1.413-.71-.358-1.445-.67-2.17-1.002l.095-.448"/></g></g></g></g></svg>