<svg xmlns="http://www.w3.org/2000/svg" width="24" height="17" viewBox="0 0 24 17"><g><g clip-path="url(#clip-8151ceee-16e9-4891-b3ad-73039a9392a0)"><path fill="transparent" d="M12.55 10.72c-3.459-.134-8.492-.853-10.377-1.184C1.36 9.393.426 8.922.77 7.92c.164-.477 1.063-.895 1.678-.98.98-.135 2 .031 3.003.07 5.364.206 5.038.413 10.402.62l.195-.482c-1.011-.61-2.08-1.145-3.02-1.85-1.305-.979-2.577-2.023-3.72-3.18C9.016 1.82 9.116.923 9.33.433c.093-.21 1.056-.29 1.435-.084 3.759 2.054 7.537 4.085 11.188 6.32 2.218 1.358 2.14 3.266-.261 4.328-4.166 1.842-8.47 3.371-12.731 4.99-.765.29-1.726.496-2.17-.465-.433-.943.26-1.52 1.032-1.94.88-.478 1.758-.962 2.652-1.413.711-.358 1.446-.67 2.17-1.002l-.095-.448"/></g></g></svg>