<svg xmlns="http://www.w3.org/2000/svg" width="44" height="22" viewBox="0 0 44 22"><g><g clip-path="url(#clip-2373a387-110c-448e-9674-f7faa4165a59)" transform="rotate(83 526.795 1207.26)"><path fill="#2e58a5" d="M32.002 10.777C28.4 9.494 28.4 9.494 24.586 1.183c-.456 3.546-.826 6.058-1.09 8.583-.282 2.706-.538 5.42-.673 8.135-.183 3.68-.187 7.367-.377 11.045-.076 1.457.559 3.693-1.882 3.65-2.162-.038-2.157-2.194-2.132-3.69a340.77 340.77 0 0 1 .644-16.298c.195-3.016.77-6.007 1.245-9.542C16.506 6.142 15.674 11.198 11 13.74c.09-1.604-.116-2.724.247-3.61 2.683-6.554 6.073-12.71 10.7-18.122.414-.485.855-.977 1.373-1.336 1.929-1.338 3.98-.893 4.623 1.324 1.689 5.827 3.133 11.726 4.639 17.606.058.225-.258.547-.58 1.175"/></g></g></svg>