<svg xmlns="http://www.w3.org/2000/svg" width="17" height="18" viewBox="0 0 17 18"><g><g><path fill="#2e58a5" d="M14.638 16.355a14.219 14.219 0 0 1-6.37-2.391l-.006-.005a14.915 14.915 0 0 1-4.434-4.678 16.05 16.05 0 0 1-2.269-6.75.851.851 0 0 1 .201-.622.762.762 0 0 1 .574-.267h2.35c.385 0 .715.302.77.703.107.846.304 1.681.588 2.483a.856.856 0 0 1-.174.865l-.987 1.04a.855.855 0 0 0-.126.987c1.177 2.182 2.893 3.992 4.962 5.233a.749.749 0 0 0 .936-.134l.987-1.04a.754.754 0 0 1 .821-.183c.759.299 1.55.507 2.354.619.39.06.676.417.666.833v2.483a.755.755 0 0 1-.843.825zM14.703 18c.586 0 1.146-.23 1.578-.648a2.531 2.531 0 0 0 .757-1.823v-2.452c.024-1.245-.838-2.314-2.009-2.488l-.007-.001a8.838 8.838 0 0 1-2.015-.53 2.22 2.22 0 0 0-.821-.157c-.62 0-1.202.253-1.643.712l-.003.003-.558.589a12.024 12.024 0 0 1-3.57-3.765l.559-.588a2.567 2.567 0 0 0 .53-2.6 10.17 10.17 0 0 1-.505-2.134 2.503 2.503 0 0 0-.78-1.515A2.266 2.266 0 0 0 4.683 0H2.333C1.679 0 1.051.293.61.802a2.554 2.554 0 0 0-.6 1.895 17.76 17.76 0 0 0 2.51 7.474 16.528 16.528 0 0 0 4.904 5.172 15.731 15.731 0 0 0 7.068 2.647c.07.006.14.01.21.01z"/></g></g></svg>