<svg xmlns="http://www.w3.org/2000/svg" width="19" height="18" viewBox="0 0 19 18"><g><g><path fill="#2e58a5" d="M13.562 10.788c-.22-.113-1.318-.65-1.523-.723-.205-.077-.353-.113-.502.112-.149.225-.575.723-.707.876-.129.149-.261.169-.482.056-1.31-.655-2.17-1.169-3.034-2.651-.229-.394.23-.366.655-1.218.073-.148.036-.277-.02-.39-.056-.112-.502-1.209-.687-1.655-.18-.434-.366-.374-.502-.382-.129-.008-.277-.008-.426-.008a.826.826 0 0 0-.595.278c-.205.225-.78.763-.78 1.86s.8 2.157.909 2.306c.112.149 1.57 2.399 3.809 3.367 1.414.61 1.969.663 2.676.559.43-.065 1.318-.539 1.502-1.061.185-.522.185-.968.129-1.06-.052-.101-.2-.158-.422-.266zM9.496 16.34a7.4 7.4 0 0 1-3.777-1.033l-.269-.16-2.804.735.747-2.737-.177-.28A7.39 7.39 0 0 1 2.083 8.92c0-4.087 3.327-7.413 7.417-7.413 1.98 0 3.841.771 5.24 2.173 1.397 1.403 2.257 3.263 2.253 5.244 0 4.09-3.41 7.417-7.497 7.417zm6.308-13.725A8.853 8.853 0 0 0 9.496 0a8.93 8.93 0 0 0-7.73 13.38L.5 18l4.729-1.242a8.893 8.893 0 0 0 4.263 1.085h.004c4.914 0 9.004-4.001 9.004-8.92 0-2.382-1.012-4.62-2.696-6.307z"/></g></g></svg>