<svg xmlns="http://www.w3.org/2000/svg" width="16" height="18" viewBox="0 0 16 18"><g><g><g><path fill="#2e58a5" d="M2 7.5c0-3.308 2.692-6 6-6s6 2.692 6 6c0 4.06-4.577 7.773-6 8.828C6.577 15.272 2 11.56 2 7.5zM8 0a7.45 7.45 0 0 0-5.303 2.197A7.45 7.45 0 0 0 .5 7.5c0 1.324.386 2.703 1.146 4.097.591 1.084 1.41 2.181 2.435 3.263a22.758 22.758 0 0 0 3.503 3.014.75.75 0 0 0 .832 0 22.757 22.757 0 0 0 3.503-3.014c1.025-1.082 1.844-2.18 2.435-3.263.76-1.394 1.146-2.773 1.146-4.097a7.45 7.45 0 0 0-2.197-5.303A7.45 7.45 0 0 0 8 0z"/></g><g><path fill="#2e58a5" d="M6.5 7.5C6.5 6.673 7.173 6 8 6s1.5.673 1.5 1.5S8.827 9 8 9s-1.5-.673-1.5-1.5zM5 7.5c0 1.654 1.346 3 3 3s3-1.346 3-3-1.346-3-3-3-3 1.346-3 3z"/></g></g></g></svg>